<svg width="80" height="46" viewBox="0 0 80 46" fill="none" xmlns="http://www.w3.org/2000/svg">
<path fill-rule="evenodd" clip-rule="evenodd" d="M39.6033 1.88744C44.6951 -1.21201 51.3034 -0.44434 55.5563 3.82356C58.0119 6.28798 59.3643 9.56952 59.3644 13.0637C59.3644 16.5576 58.0119 19.8392 55.5564 22.3037C53.0184 24.851 49.6842 26.1247 46.3499 26.1247C44.0076 26.1247 41.6656 25.4952 39.5992 24.2378C37.5184 25.5053 35.1843 26.1284 32.8609 26.1284C29.4982 26.1284 26.1594 24.8282 23.6441 22.3037C18.5676 17.2086 18.5676 8.91866 23.6441 3.8237C26.0995 1.35921 29.3692 0.0020625 32.8506 0.0020625C35.2714 0.0020625 37.5896 0.658915 39.6033 1.88744ZM25.0444 5.23271C20.7415 9.55107 20.7415 16.578 25.0444 20.8964C28.4474 24.3122 33.6304 25.0833 37.8305 22.9483C37.5948 22.7435 37.3646 22.5292 37.1407 22.3044L35.5309 20.6887C34.6641 20.9941 33.7629 21.1458 32.8656 21.1458C30.7629 21.1461 28.6861 20.3276 27.1487 18.7844C25.6285 17.2588 24.7913 15.2273 24.7913 13.0643C24.7913 10.9016 25.6284 8.87022 27.1487 7.3445C28.669 5.81891 30.6929 4.97868 32.848 4.97868C35.0029 4.97868 37.027 5.81891 38.5471 7.3447L49.464 18.3011C49.8888 18.0459 50.2849 17.7366 50.6435 17.3764C51.0035 17.0151 51.3127 16.6159 51.5675 16.1882L40.6517 5.23251C38.5708 3.14404 35.7993 1.99414 32.848 1.99414C29.8965 1.99414 27.1251 3.14425 25.0444 5.23271ZM52.3284 14.1324L45.2859 7.06403C47.2091 6.72667 49.231 7.33102 50.6463 8.75165C51.7915 9.90114 52.4225 11.4326 52.4225 13.0634C52.4224 13.4258 52.3895 13.7829 52.3284 14.1324ZM46.3485 19.1583C46.7118 19.1583 47.0696 19.1248 47.4195 19.063L37.1454 8.7515C36 7.6018 34.4741 6.96875 32.8492 6.96875C32.4861 6.96875 32.1282 7.00203 31.7781 7.06402L42.0524 17.3753C43.1978 18.5251 44.7236 19.1583 46.3485 19.1583ZM26.8724 11.9941L33.915 19.0625C31.9916 19.4 29.9698 18.7953 28.5547 17.3748C27.4093 16.2252 26.7784 14.6938 26.7784 13.0628C26.7784 12.7006 26.8115 12.3436 26.8724 11.9941ZM38.5456 20.8956C42.8486 25.2143 49.8498 25.2143 54.1526 20.8956C56.2337 18.8072 57.3797 16.0259 57.3797 13.0637C57.3797 10.1015 56.2337 7.31998 54.1526 5.23165C50.7498 1.81618 45.5674 1.0449 41.3671 3.17974C41.6032 3.38507 41.8333 3.59961 42.0565 3.82356L43.6652 5.43807C46.5628 4.41672 49.8545 5.1419 52.0484 7.34385C53.5686 8.86943 54.4058 10.9008 54.4058 13.0635C54.4058 15.2265 53.5686 17.258 52.0484 18.7838C50.5282 20.3094 48.5044 21.1497 46.3492 21.1497C44.1942 21.1497 42.1703 20.3095 40.65 18.7838L29.7331 7.82728C29.3084 8.08233 28.9123 8.39166 28.5535 8.75166C28.1935 9.11302 27.8845 9.5123 27.6297 9.94029L38.5456 20.8956Z" fill="url(#paint0_linear_734_188)"/>
<path fill-rule="evenodd" clip-rule="evenodd" d="M70.8581 44.8872L71.7923 42.1668H76.3905L77.3705 44.8872H79.9994L74.6043 31.2852H73.5602L68.2109 44.8872H70.8581ZM7.30021 45.0708L10.0023 37.6606L11.3946 44.8967H13.7028L10.964 31.4688H9.70918L6.8697 40.5093L3.96611 31.4688H2.70208L0 44.8967H2.29906L3.74628 37.6606L6.44836 45.0708H7.30021ZM17.5963 44.8876V31.4688H15.2148V44.8876H17.5963ZM28.8358 42.7717V44.8876H20.3906V31.4688H22.7721V42.7717H28.8358ZM39.203 44.8876V42.7717H33.1393V31.4688H30.7578V44.8876H39.203ZM49.5892 42.7717V44.8876H41.1257V31.4688H49.69V33.5846H43.5072V36.7264H47.9405V38.7506H43.5072V42.7717H49.5892ZM61.5702 45.0708V31.4688H59.2803V39.5658L52.9418 31.4688H51.7969V44.8967H54.0868V36.5798L60.5993 45.0708H61.5702ZM66.7448 31.4688V44.8876H64.3633V31.4688H66.7448ZM74.0841 35.3886L72.472 40.344H75.6962L74.0841 35.3886Z" fill="#2E3275"/>
<defs>
<linearGradient id="paint0_linear_734_188" x1="59.4813" y1="-0.0248264" x2="19.8787" y2="-0.0248264" gradientUnits="userSpaceOnUse">
<stop stop-color="#F6B035"/>
<stop offset="0.3011" stop-color="#E65221"/>
<stop offset="0.6505" stop-color="#A3195C"/>
<stop offset="1" stop-color="#282B5C"/>
</linearGradient>
</defs>
</svg>
