<svg width="141" height="300" viewBox="0 0 141 300" fill="none" xmlns="http://www.w3.org/2000/svg">
<path d="M70.8754 300C109.564 300 140.928 296.92 140.928 293.121C140.928 289.322 109.564 286.242 70.8754 286.242C32.1864 286.242 0.822754 289.322 0.822754 293.121C0.822754 296.92 32.1864 300 70.8754 300Z" fill="#EFEEFE"/>
<path d="M99.8268 94.003C101.044 94.0339 104.504 104.838 104.937 106.009C106.85 111.241 109.262 120.547 109.71 122.602C112.041 133.407 105.809 196.952 88.4044 283.214L82.5318 282.961C78.6461 233.997 74.7603 185.033 70.8746 136.069C71.5858 121.81 72.2971 107.55 73.0009 93.2909C73.0082 93.2847 99.8268 94.003 99.8268 94.003Z" fill="#4463CD"/>
<path d="M99.8268 94.003C101.044 94.0339 104.504 104.838 104.937 106.009C106.85 111.241 109.262 120.547 109.71 122.602C112.041 133.407 105.809 196.952 88.4044 283.214L82.5318 282.961C78.6461 233.997 74.7603 185.033 70.8746 136.069C71.5858 121.81 72.2971 107.55 73.0009 93.2909C73.0082 93.2847 99.8268 94.003 99.8268 94.003Z" fill="#4463CD"/>
<path d="M109.71 122.602C109.263 120.547 106.858 111.24 104.937 106.008C104.512 104.838 101.044 94.0337 99.8274 94.0028L73.0015 93.2845C72.9942 93.3712 72.9941 93.4579 72.9868 93.5508C80.8389 93.7923 91.2642 94.1142 91.2716 94.1142C92.4886 94.1514 95.949 106.646 96.3816 108.002C98.2951 114.058 100.707 124.825 101.154 127.203C103.251 138.416 98.4418 198.729 84.8785 283.059L88.405 283.214C105.803 196.952 112.042 133.407 109.71 122.602Z" fill="#2E3192"/>
<path d="M45.1113 101.501C45.1113 101.501 23.4907 122.144 32.1199 167.133C40.7491 212.121 53.2418 283.208 53.2418 283.208L59.1144 282.954L71.1675 138.249C71.1675 138.249 78.7262 125.717 79.1955 100.232L45.1113 101.501Z" fill="#4463CD"/>
<path d="M53.2354 283.214C53.2354 283.214 53.3894 285.257 52.7516 286.675C52.1211 288.099 57.2238 288.347 57.2971 288.304C57.3704 288.26 59.7092 286.675 59.7092 286.675C59.7092 286.675 59.0053 284.886 59.1079 282.954" fill="#F6A19E"/>
<path d="M88.4486 283.214C88.4486 283.214 88.2947 285.257 88.9326 286.675C89.5704 288.093 84.4604 288.347 84.3871 288.304C84.3138 288.26 81.975 286.675 81.975 286.675C81.975 286.675 82.6787 284.886 82.576 282.954" fill="#F6A19E"/>
<path d="M61.0063 289.771C60.8376 288.292 60.1265 287.221 59.7086 286.676C59.0414 286.465 58.1689 286.261 57.1205 286.18C55.207 286.038 53.6601 286.397 52.751 286.676C52.3477 287.109 51.402 288.242 51.2847 289.877C51.2114 290.911 51.4973 291.74 51.7173 292.23C54.7305 292.23 57.7437 292.23 60.7643 292.23C60.9402 291.672 61.1309 290.812 61.0063 289.771Z" fill="#F95F6A"/>
<path d="M57.26 288.31H55.1484C53.0736 288.31 51.3875 289.734 51.3875 291.486V292.186H61.021V291.486C61.021 289.734 59.3421 288.31 57.26 288.31Z" fill="#D3D5FC"/>
<path d="M61.0211 292.062H51.2628V293.121H61.0211V292.062Z" fill="#D3D5FC"/>
<path d="M54.8041 287.121C54.8041 287.121 56.197 286.731 57.502 287.121" stroke="#E1EEF7" stroke-width="0.9274" stroke-miterlimit="10"/>
<path d="M54.8041 287.933C54.8041 287.933 56.197 287.542 57.502 287.933" stroke="#E1EEF7" stroke-width="0.9274" stroke-miterlimit="10"/>
<path d="M80.6333 289.771C80.8019 288.292 81.5131 287.221 81.931 286.676C82.5981 286.465 83.4706 286.261 84.519 286.18C86.4325 286.038 87.9794 286.397 88.8886 286.676C89.2918 287.109 90.2376 288.242 90.3549 289.877C90.4282 290.911 90.1422 291.74 89.9222 292.23C86.909 292.23 83.8958 292.23 80.8753 292.23C80.6993 291.672 80.5086 290.812 80.6333 289.771Z" fill="#F95F6A"/>
<path d="M84.3788 288.31H86.4902C88.565 288.31 90.2514 289.734 90.2514 291.486V292.186H80.6104V291.486C80.6177 289.734 82.304 288.31 84.3788 288.31Z" fill="#D3D5FC"/>
<path d="M80.6165 293.117H90.3748V292.059H80.6165V293.117Z" fill="#D3D5FC"/>
<path d="M86.8352 287.121C86.8352 287.121 85.4422 286.731 84.1372 287.121" stroke="#E1EEF7" stroke-width="0.9274" stroke-miterlimit="10"/>
<path d="M86.8352 287.933C86.8352 287.933 85.4422 287.542 84.1372 287.933" stroke="#E1EEF7" stroke-width="0.9274" stroke-miterlimit="10"/>
<path d="M54.9067 37.2251L50.4713 38.0981C48.4185 38.5006 46.6881 39.6584 45.757 41.2559C42.3698 47.0575 34.2905 62.159 30.9107 79.539C30.9107 79.539 24.679 92.9254 22.9121 101.941C22.4355 104.368 24.2904 106.69 27.1277 107.247L27.5016 107.321L31.6072 102.572L46.2849 81.96L54.9067 37.2251Z" fill="#F9E0D2"/>
<path d="M52.4578 29.7766C51.3801 28.0491 48.1615 22.3466 50.0604 15.4367C52.4431 6.78069 61.8421 -0.0858717 70.156 0.000811742C81.1533 0.112262 93.7782 12.4275 91.5201 29.7766C78.4994 29.7766 65.4786 29.7766 52.4578 29.7766Z" fill="#F95F6A"/>
<path d="M93.4565 43.8564C93.4565 43.8564 94.9229 73.3226 98.4787 88.0278C98.4787 88.0278 73.6175 94.9129 119.681 96.368C123.31 96.4856 126.324 94.0275 126.324 90.9627C112.277 87.3591 128.992 85.3716 114.945 81.768C111.06 70.8707 109.402 52.5433 101.074 41.7264L93.4565 43.8564Z" fill="#FFC5AE"/>
<path d="M105.194 106.733C106.44 93.1733 106.506 77.304 103.889 59.7691C103.148 54.8158 102.247 50.0606 101.22 45.5221C100.48 42.2219 97.679 39.5286 93.9033 38.476C87.151 36.5875 80.3986 34.7052 73.6462 32.8168L52.0109 37.9063C49.291 47.813 46.8569 59.0757 45.266 71.5148C43.7337 83.4461 42.7145 94.3497 42.8025 104.182C50.2 105.897 59.8116 107.55 70.281 108.207C84.1376 109.073 96.066 108.083 105.194 106.733Z" fill="#F9E0D2"/>
<path d="M105.194 106.733C106.44 93.1733 106.506 77.304 103.889 59.7692C102.943 53.4165 104.549 46.7109 101.066 41.7266C101.059 41.7204 101.059 41.7142 101.052 41.708C100.363 40.7236 99.2848 39.9744 98.0017 39.6152C93.031 38.2283 88.053 36.8352 83.0822 35.4482C79.7537 37.5968 78.5732 40.5316 81.2859 44.5376C89.2405 56.3204 85.0397 90.065 81.9605 108.516C90.8903 108.454 98.7423 107.687 105.194 106.733Z" fill="#FFC5AE"/>
<path d="M66.6453 30.7302L66.5207 20.4397L78.625 19.9443L78.779 31.4361C79.0502 33.5165 82.0488 35.1635 84.4022 35.8198L88.6545 37.0086C88.2073 40.1911 84.3656 47.4292 80.6779 47.8998C73.7056 48.7914 65.0617 38.8413 61.1246 35.7641C63.72 35.1511 66.4767 33.0026 66.6453 30.7302Z" fill="#FB9C98"/>
<path d="M78.676 24.5386L78.6173 19.9443L66.5129 20.4397L66.601 27.5911C67.5981 28.1731 68.7197 28.557 69.944 28.6746C73.3532 28.9966 76.6012 27.1515 78.676 24.5386Z" fill="#F26D6D"/>
<path d="M66.3957 9.41203C65.9631 9.67827 62.6493 11.7649 61.8208 15.3684C60.7138 20.1546 64.2181 26.6063 69.9514 27.145C75.4353 27.6651 80.5234 22.5446 80.956 17.6779C81.3445 13.3623 78.1627 8.34087 73.4852 7.60406C70.2007 7.09015 67.2975 8.86097 66.3957 9.41203Z" fill="#FB9C98"/>
<path d="M60.6772 5.51156C59.6141 7.76533 65.7212 11.567 66.3224 11.9385C71.5205 15.1272 79.5411 16.7371 81.5353 14.4276C83.0016 12.7311 81.0294 9.13988 78.7566 7.10282C73.2213 2.14948 61.9309 2.85533 60.6772 5.51156Z" fill="#F95F6A"/>
<path d="M83.9181 16.8114C84.0428 15.5731 82.9576 14.4771 81.484 14.3719C80.0177 14.2666 78.7201 15.183 78.5954 16.4275C78.4708 17.6659 79.5559 18.7618 81.0296 18.867C82.4959 18.9723 83.7935 18.0559 83.9181 16.8114Z" fill="#FB9C98"/>
<path d="M67.7075 24.167C67.6416 24.5881 68.6092 25.0772 69.401 25.201C70.7866 25.4115 72.3556 24.5942 73.0521 23.1021C68.8364 23.3064 67.7735 23.7522 67.7075 24.167Z" fill="white"/>
<path d="M66.4765 66.7966C66.4765 62.3324 70.7582 58.7164 76.0442 58.7164H77.2611C82.5472 58.7164 86.8288 62.3324 86.8288 66.7966C87.0707 66.9204 87.5474 67.1309 88.1999 67.1619C89.0723 67.2114 89.7174 66.9142 89.9594 66.7904C89.9594 60.865 84.2701 56.0664 77.2611 56.0664H76.0442C69.0352 56.0664 63.3459 60.8712 63.3459 66.7904C63.5732 66.908 64.1085 67.1557 64.8489 67.1681C65.6627 67.1867 66.2492 66.9142 66.4765 66.7966Z" fill="#653087"/>
<path d="M118.487 118.751H34.8196C32.5468 118.751 30.6992 117.197 30.6992 115.271V73.0998C30.6992 71.1804 32.5395 69.6201 34.8196 69.6201H118.487C120.759 69.6201 122.607 71.1742 122.607 73.0998V115.271C122.607 117.197 120.767 118.751 118.487 118.751Z" fill="#8847B2"/>
<path d="M30.6992 97.9408C42.8035 100.232 58.4564 102.238 76.7632 102.232C94.9673 102.225 110.547 100.226 122.607 97.9408V69.6324H30.6992V97.9408Z" fill="#653087"/>
<path d="M123.223 94.8698C111.309 97.3341 95.473 99.6002 76.763 99.6126C57.9504 99.6188 42.0411 97.3402 30.0907 94.8698V70.2888C30.0907 67.9607 32.3269 66.0723 35.0835 66.0723H118.23C120.987 66.0723 123.223 67.9607 123.223 70.2888V94.8698Z" fill="#8847B2"/>
<path d="M73.8618 104.504H80.1597C80.3356 104.504 80.4749 104.386 80.4749 104.237V94.9685C80.4749 94.8261 80.3356 94.7023 80.1597 94.7023H73.8618C73.6859 94.7023 73.5466 94.8199 73.5466 94.9685V104.237C73.554 104.386 73.6932 104.504 73.8618 104.504Z" fill="#F89F4F"/>
<path d="M73.1564 104.504H79.454C79.63 104.504 79.7694 104.386 79.7694 104.238V94.9688C79.7694 94.8263 79.63 94.7025 79.454 94.7025H73.1564C72.9804 94.7025 72.8412 94.8202 72.8412 94.9688V104.238C72.8412 104.386 72.9804 104.504 73.1564 104.504Z" fill="#FDC854"/>
<path d="M24.3415 103.86C24.0995 105.742 25.6612 107.457 27.8753 107.73C29.0923 107.878 30.5293 107.903 32.0763 107.625C34.327 107.222 36.0719 106.968 36.9516 105.711C37.4868 104.95 37.7435 103.786 37.2303 102.919C36.9297 102.411 36.2038 101.767 35.5073 101.321C34.6129 100.746 31.2991 99.8912 27.8386 101.247C26.3796 101.811 24.5101 102.492 24.3415 103.86Z" fill="#FB9C98"/>
<path d="M26.5706 101.823C30.0604 97.8477 31.3947 97.2038 31.9373 97.4329C32.6924 97.7487 32.8022 100.077 31.0573 101.389C29.8403 102.306 28.0369 102.485 26.5706 101.823Z" fill="#FB9C98"/>
<path d="M127.387 92.1949C125.232 87.5945 124.146 86.6843 123.545 86.7834C122.717 86.9258 121.903 89.1486 123.186 90.7956C124.081 91.9472 125.767 92.5107 127.387 92.1949Z" fill="#FB9C98"/>
<path d="M127.687 93.6251C127.218 95.4764 125.107 96.6961 122.9 96.368C121.683 96.1884 120.312 95.8355 118.948 95.1668C116.954 94.1885 115.392 93.4889 115.018 92.0648C114.791 91.1979 114.975 90.0277 115.781 89.3342C116.25 88.9318 117.181 88.5107 118.01 88.2693C119.073 87.9597 122.533 88.0216 125.327 90.2135C126.5 91.136 128.032 92.2753 127.687 93.6251Z" fill="#FB9C98"/>
</svg>
